<svg xmlns="http://www.w3.org/2000/svg" viewBox="0 0 370.6 120"><path d="M107 120H13c-7.2 0-13-5.8-13-13V13C0 5.8 5.8 0 13 0h94c7.2 0 13 5.8 13 13v94c0 7.2-5.8 13-13 13zM24.2 79.3c0 1 1 2.1 1.8 2.9 3.9 4 7.9 8 11.9 12 .8.8 1.9 1.8 2.9 1.8 5.6.2 11.1.1 16.4.1L24.1 62.8c0 5.3-.1 10.9.1 16.5zm55.9-6.4C91 68.3 97.3 56.7 95.2 45.1c-1.8-11-11.4-20.4-22.6-20.8-15.1-.5-30.4-.2-45.6-.3-2.5 0-3.1 1.1-3 3.4.1 4.2-.1 8.4.1 12.6.1 1.8.8 3.4 2 4.8 16.3 16.5 32.7 33 49.2 49.3.8.8 1.9 1.7 2.9 1.8 5.5.2 11.1.1 17.8.1L74.3 75c2.6-.9 4.2-1.5 5.8-2.1zM56 56c-4.9-5.7-10.4-10.8-15.6-16.2-1-1-1.9-2.1-3.2-3.5 1.2-.2 2.4-.4 3.5-.5 9.3-.1 18.5-.3 27.8-.3 7.9 0 13.6 5.6 13.5 12.8-.1 7.1-5.7 12-13.4 12.6-5.2.6-9.1-.8-12.6-4.9z" fill-rule="evenodd" clip-rule="evenodd" fill="#c04ae2"/><path fill="none" d="M156.3 21.7H379v75H156.3z"/><path d="M164.8 96.1V24h35.1c8.7 0 14.9 2.2 18.8 6.5 3.9 4.3 5.8 9.9 5.8 16.8 0 4.3-1.2 8.4-3.5 12.5s-5.5 6.9-9.6 8.5l13.5 27.8h-17.5l-13.1-25.4h-13.9v25.4h-15.6zm15.7-40.3h19.7c5.4 0 8.1-2.8 8.1-8.5 0-2.4-.6-4.4-1.9-6-1.3-1.6-3.3-2.4-6.2-2.4h-19.7v16.9zM265 97.3c-4.5 0-8.6-.7-12.3-2.2-3.7-1.4-6.7-3.4-9.1-5.8-2.4-2.4-4.4-5.3-6-8.5-1.6-3.2-2.8-6.6-3.5-10-.7-3.5-1.1-7.1-1.1-10.8s.4-7.3 1.1-10.8c.7-3.5 1.9-6.8 3.5-10s3.6-6.1 6-8.5c2.4-2.4 5.4-4.4 9.1-5.8 3.7-1.4 7.8-2.2 12.3-2.2 5.6 0 10.5 1.1 14.7 3.2 4.3 2.2 7.6 5.1 10 8.8 2.4 3.7 4.2 7.6 5.4 11.9 1.2 4.3 1.8 8.7 1.8 13.4 0 4.7-.6 9.1-1.8 13.4-1.2 4.3-3 8.2-5.4 11.9-2.4 3.7-5.7 6.6-10 8.8-4.2 2.2-9.1 3.2-14.7 3.2zm0-15.1c3.6 0 6.6-1.2 9.1-3.7 2.5-2.4 4.2-5.3 5.2-8.4 1-3.2 1.4-6.5 1.4-10 0-3.7-.4-7.2-1.3-10.4s-2.6-6-5-8.3c-2.5-2.4-5.6-3.6-9.3-3.6s-6.8 1.2-9.3 3.7c-2.5 2.4-4.2 5.3-5.1 8.4-.9 3.2-1.3 6.6-1.3 10.1 0 2.7.3 5.3.8 7.7.5 2.5 1.4 4.8 2.6 7.1 1.2 2.2 2.8 4 4.9 5.4 2 1.3 4.5 2 7.3 2zm74.3 15.1c-3.8 0-7.5-.5-10.9-1.5-3.4-1-6.6-2.6-9.5-4.7-3-2.2-5.3-5.2-7.1-9.1-1.8-3.9-2.6-8.5-2.6-13.7V24h15.7v44.3c0 5.1 1.1 8.8 3.5 10.8 2.3 2.1 6 3.1 11 3.1 4.9 0 8.5-1 10.9-3.1 2.4-2.1 3.6-5.7 3.6-10.8V24h15.7v44.3c0 5.1-.9 9.7-2.6 13.5-1.7 3.9-4 6.9-7 9.1-2.9 2.2-6.1 3.8-9.5 4.8-3.6 1.1-7.3 1.6-11.2 1.6z"/></svg>