<svg xmlns="http://www.w3.org/2000/svg" width="120" height="120" viewBox="0 0 120 120">
  <defs>
    <style>
      .cls-1 {
        fill: #c04ae2;
        fill-rule: evenodd;
      }
    </style>
  </defs>
  <path class="cls-1" d="M107,120H13A13,13,0,0,1,0,107V13A13,13,0,0,1,13,0h94a13,13,0,0,1,13,13v94A13,13,0,0,1,107,120ZM24.164,79.3c0.03,0.977,1.022,2.054,1.8,2.857q5.894,6.056,11.939,11.963c0.8,0.779,1.882,1.748,2.86,1.778,5.57,0.17,11.148.083,16.432,0.083L24.08,62.832C24.08,68.139,23.991,73.723,24.164,79.3Zm55.888-6.4A25.423,25.423,0,0,0,95.217,45.058c-1.769-11.018-11.388-20.429-22.573-20.8-15.193-.5-30.414-0.159-45.622-0.233-2.459-.012-3.1,1.151-3.03,3.411,0.129,4.2-.14,8.416.141,12.6a8.019,8.019,0,0,0,1.983,4.758Q50.6,69.577,75.309,94.133C76.1,94.919,77.2,95.87,78.177,95.9c5.562,0.17,11.131.082,17.835,0.082L74.319,75C76.91,74.057,78.509,73.545,80.052,72.9ZM55.994,56.022c-4.884-5.657-10.36-10.788-15.567-16.159-0.973-1-1.874-2.08-3.184-3.541a34.343,34.343,0,0,1,3.546-.464c9.251-.12,18.5-0.317,27.754-0.258,7.951,0.051,13.62,5.57,13.539,12.819-0.08,7.1-5.651,12.045-13.435,12.643C63.443,61.462,59.524,60.111,55.994,56.022Z"/>
</svg>
