<svg xmlns="http://www.w3.org/2000/svg" width="120" height="120"><path d="M107 120H13a13 13 0 01-13-13V13A13 13 0 0113 0h94a13 13 0 0113 13v94a13 13 0 01-13 13zM24.164 79.3c.03.977 1.022 2.054 1.8 2.857q5.894 6.056 11.939 11.963c.8.779 1.882 1.748 2.86 1.778 5.57.17 11.148.083 16.432.083L24.08 62.832c0 5.307-.089 10.891.084 16.468zm55.888-6.4a25.423 25.423 0 0015.165-27.842c-1.769-11.018-11.388-20.429-22.573-20.8-15.193-.5-30.414-.159-45.622-.233-2.459-.012-3.1 1.151-3.03 3.411.129 4.2-.14 8.416.141 12.6a8.019 8.019 0 001.983 4.758Q50.6 69.577 75.309 94.133c.791.786 1.891 1.737 2.868 1.767 5.562.17 11.131.082 17.835.082L74.319 75c2.591-.943 4.19-1.455 5.733-2.1zM55.994 56.022c-4.884-5.657-10.36-10.788-15.567-16.159-.973-1-1.874-2.08-3.184-3.541a34.343 34.343 0 013.546-.464c9.251-.12 18.5-.317 27.754-.258 7.951.051 13.62 5.57 13.539 12.819-.08 7.1-5.651 12.045-13.435 12.643-5.204.4-9.123-.951-12.653-5.04z" fill="#c04ae2" fill-rule="evenodd"/></svg>