<?xml version="1.0" encoding="utf-8"?>
<svg version="1.1" id="Слой_1" xmlns="http://www.w3.org/2000/svg" xmlns:xlink="http://www.w3.org/1999/xlink" x="0px" y="0px"
	 viewBox="0 0 370.6 120" style="enable-background:new 0 0 370.6 120;" xml:space="preserve">
<style type="text/css">
	.st0{fill-rule:evenodd;clip-rule:evenodd;fill:#C04AE2;}
	.st1{fill:none;}
	.st2{enable-background:new    ;}
</style>
<path class="st0" d="M107,120H13c-7.2,0-13-5.8-13-13V13C0,5.8,5.8,0,13,0h94c7.2,0,13,5.8,13,13v94C120,114.2,114.2,120,107,120z
	 M24.2,79.3c0,1,1,2.1,1.8,2.9c3.9,4,7.9,8,11.9,12c0.8,0.8,1.9,1.8,2.9,1.8c5.6,0.2,11.1,0.1,16.4,0.1L24.1,62.8
	C24.1,68.1,24,73.7,24.2,79.3z M80.1,72.9C91,68.3,97.3,56.7,95.2,45.1c-1.8-11-11.4-20.4-22.6-20.8C57.5,23.8,42.2,24.1,27,24
	c-2.5,0-3.1,1.1-3,3.4c0.1,4.2-0.1,8.4,0.1,12.6c0.1,1.8,0.8,3.4,2,4.8c16.3,16.5,32.7,33,49.2,49.3c0.8,0.8,1.9,1.7,2.9,1.8
	C83.7,96.1,89.3,96,96,96L74.3,75C76.9,74.1,78.5,73.5,80.1,72.9z M56,56c-4.9-5.7-10.4-10.8-15.6-16.2c-1-1-1.9-2.1-3.2-3.5
	c1.2-0.2,2.4-0.4,3.5-0.5c9.3-0.1,18.5-0.3,27.8-0.3c7.9,0,13.6,5.6,13.5,12.8c-0.1,7.1-5.7,12-13.4,12.6C63.4,61.5,59.5,60.1,56,56
	z"/>
<rect x="156.3" y="21.7" class="st1" width="222.7" height="75"/>
<g class="st2">
	<path d="M164.8,96.1V24h35.1c8.7,0,14.9,2.2,18.8,6.5c3.9,4.3,5.8,9.9,5.8,16.8c0,4.3-1.2,8.4-3.5,12.5c-2.3,4.1-5.5,6.9-9.6,8.5
		l13.5,27.8h-17.5l-13.1-25.4h-13.9v25.4H164.8z M180.5,55.8h19.7c5.4,0,8.1-2.8,8.1-8.5c0-2.4-0.6-4.4-1.9-6
		c-1.3-1.6-3.3-2.4-6.2-2.4h-19.7V55.8z"/>
	<path d="M265,97.3c-4.5,0-8.6-0.7-12.3-2.2c-3.7-1.4-6.7-3.4-9.1-5.8c-2.4-2.4-4.4-5.3-6-8.5c-1.6-3.2-2.8-6.6-3.5-10
		c-0.7-3.5-1.1-7.1-1.1-10.8s0.4-7.3,1.1-10.8c0.7-3.5,1.9-6.8,3.5-10c1.6-3.2,3.6-6.1,6-8.5c2.4-2.4,5.4-4.4,9.1-5.8
		c3.7-1.4,7.8-2.2,12.3-2.2c5.6,0,10.5,1.1,14.7,3.2c4.3,2.2,7.6,5.1,10,8.8c2.4,3.7,4.2,7.6,5.4,11.9c1.2,4.3,1.8,8.7,1.8,13.4
		c0,4.7-0.6,9.1-1.8,13.4c-1.2,4.3-3,8.2-5.4,11.9c-2.4,3.7-5.7,6.6-10,8.8C275.5,96.3,270.6,97.3,265,97.3z M265,82.2
		c3.6,0,6.6-1.2,9.1-3.7c2.5-2.4,4.2-5.3,5.2-8.4c1-3.2,1.4-6.5,1.4-10c0-3.7-0.4-7.2-1.3-10.4c-0.9-3.2-2.6-6-5-8.3
		c-2.5-2.4-5.6-3.6-9.3-3.6s-6.8,1.2-9.3,3.7c-2.5,2.4-4.2,5.3-5.1,8.4c-0.9,3.2-1.3,6.6-1.3,10.1c0,2.7,0.3,5.3,0.8,7.7
		c0.5,2.5,1.4,4.8,2.6,7.1c1.2,2.2,2.8,4,4.9,5.4C259.7,81.5,262.2,82.2,265,82.2z"/>
	<path d="M339.3,97.3c-3.8,0-7.5-0.5-10.9-1.5c-3.4-1-6.6-2.6-9.5-4.7c-3-2.2-5.3-5.2-7.1-9.1c-1.8-3.9-2.6-8.5-2.6-13.7V24h15.7
		v44.3c0,5.1,1.1,8.8,3.5,10.8c2.3,2.1,6,3.1,11,3.1c4.9,0,8.5-1,10.9-3.1c2.4-2.1,3.6-5.7,3.6-10.8V24h15.7v44.3
		c0,5.1-0.9,9.7-2.6,13.5c-1.7,3.9-4,6.9-7,9.1c-2.9,2.2-6.1,3.8-9.5,4.8C346.9,96.8,343.2,97.3,339.3,97.3z"/>
</g>
</svg>
